Encode_Cond_Lt.ufo
<glyph name="ampersand" format="1">
  <advance width="537"/>
  <unicode hex="0026"/>
  <outline>
    <contour>
      <point x="537" y="18" type="line"/>
      <point x="258" y="266" type="line" smooth="yes"/>
      <point x="175" y="338"/>
      <point x="154" y="381"/>
      <point x="154" y="440" type="curve" smooth="yes"/>
      <point x="154" y="526"/>
      <point x="202" y="569"/>
      <point x="303" y="569" type="curve" smooth="yes"/>
      <point x="327" y="569"/>
      <point x="350" y="567"/>
      <point x="382" y="560" type="curve"/>
      <point x="382" y="593" type="line"/>
      <point x="357" y="599"/>
      <point x="330" y="602"/>
      <point x="304" y="602" type="curve" smooth="yes"/>
      <point x="181" y="602"/>
      <point x="118" y="545"/>
      <point x="118" y="440" type="curve" smooth="yes"/>
      <point x="118" y="370"/>
      <point x="146" y="320"/>
      <point x="236" y="240" type="curve" smooth="yes"/>
      <point x="515" y="-8" type="line"/>
    </contour>
    <contour>
      <point x="448" y="200" type="curve" smooth="yes"/>
      <point x="448" y="233"/>
      <point x="443" y="273"/>
      <point x="433" y="309" type="curve"/>
      <point x="400" y="309" type="line"/>
      <point x="411" y="273"/>
      <point x="416" y="233"/>
      <point x="416" y="199" type="curve" smooth="yes"/>
      <point x="416" y="75"/>
      <point x="351" y="25"/>
      <point x="250" y="25" type="curve" smooth="yes"/>
      <point x="151" y="25"/>
      <point x="94" y="79"/>
      <point x="94" y="166" type="curve" smooth="yes"/>
      <point x="94" y="227"/>
      <point x="123" y="274"/>
      <point x="179" y="303" type="curve"/>
      <point x="162" y="328" type="line"/>
      <point x="96" y="294"/>
      <point x="59" y="237"/>
      <point x="59" y="162" type="curve" smooth="yes"/>
      <point x="59" y="59"/>
      <point x="131" y="-7"/>
      <point x="248" y="-7" type="curve" smooth="yes"/>
      <point x="370" y="-7"/>
      <point x="448" y="61"/>
    </contour>
  </outline>
</glyph>
<glyph name="A" format="1">
  <advance width="485"/>
  <unicode hex="0041"/>
  <outline>
    <contour>
      <point x="46" y="0" type="line"/>
      <point x="247" y="576" type="line"/>
      <point x="237" y="576" type="line"/>
      <point x="438" y="0" type="line"/>
      <point x="475" y="0" type="line"/>
      <point x="265" y="595" type="line"/>
      <point x="220" y="595" type="line"/>
      <point x="11" y="0" type="line"/>
    </contour>
    <contour>
      <point x="380" y="208" type="line"/>
      <point x="371" y="241" type="line"/>
      <point x="114" y="241" type="line"/>
      <point x="105" y="208" type="line"/>
    </contour>
    <contour>
      <point x="243" y="611" type="move" name="top"/>
    </contour>
    <contour>
      <point x="475" y="0" type="move" name="ogonek"/>
    </contour>
    <contour>
      <point x="243" y="0" type="move" name="bottom"/>
    </contour>
  </outline>
</glyph>
<glyph name="B" format="1">
  <advance width="465"/>
  <unicode hex="0042"/>
  <outline>
    <contour>
      <point x="436" y="157" type="curve" smooth="yes"/>
      <point x="436" y="240"/>
      <point x="390" y="299"/>
      <point x="288" y="310" type="curve"/>
      <point x="288" y="305" type="line"/>
      <point x="387" y="318"/>
      <point x="418" y="381"/>
      <point x="418" y="447" type="curve" smooth="yes"/>
      <point x="418" y="552"/>
      <point x="354" y="601"/>
      <point x="204" y="601" type="curve" smooth="yes"/>
      <point x="149" y="601"/>
      <point x="106" y="596"/>
      <point x="69" y="589" type="curve"/>
      <point x="69" y="2" type="line"/>
      <point x="109" y="-2"/>
      <point x="150" y="-4"/>
      <point x="192" y="-4" type="curve" smooth="yes"/>
      <point x="365" y="-4"/>
      <point x="436" y="51"/>
    </contour>
    <contour>
      <point x="103" y="32" type="curve"/>
      <point x="103" y="561" type="line"/>
      <point x="132" y="566"/>
      <point x="163" y="568"/>
      <point x="204" y="568" type="curve" smooth="yes"/>
      <point x="335" y="568"/>
      <point x="384" y="533"/>
      <point x="384" y="446" type="curve" smooth="yes"/>
      <point x="384" y="368"/>
      <point x="343" y="322"/>
      <point x="209" y="322" type="curve" smooth="yes"/>
      <point x="96" y="322" type="line"/>
      <point x="96" y="289" type="line"/>
      <point x="226" y="289" type="line" smooth="yes"/>
      <point x="348" y="289"/>
      <point x="402" y="245"/>
      <point x="402" y="157" type="curve" smooth="yes"/>
      <point x="402" y="69"/>
      <point x="345" y="28"/>
      <point x="195" y="28" type="curve" smooth="yes"/>
      <point x="164" y="28"/>
      <point x="132" y="29"/>
    </contour>
    <contour>
      <point x="242" y="595" type="move" name="top"/>
    </contour>
    <contour>
      <point x="242" y="0" type="move" name="bottom"/>
    </contour>
  </outline>
</glyph>
<glyph name="C" format="1">
  <advance width="397"/>
  <unicode hex="0043"/>
  <outline>
    <contour>
      <point x="392" y="13" type="curve"/>
      <point x="392" y="47" type="line"/>
      <point x="348" y="32"/>
      <point x="313" y="26"/>
      <point x="273" y="26" type="curve" smooth="yes"/>
      <point x="151" y="26"/>
      <point x="77" y="86"/>
      <point x="77" y="298" type="curve" smooth="yes"/>
      <point x="77" y="505"/>
      <point x="148" y="569"/>
      <point x="276" y="569" type="curve" smooth="yes"/>
      <point x="315" y="569"/>
      <point x="349" y="566"/>
      <point x="392" y="553" type="curve"/>
      <point x="392" y="586" type="line"/>
      <point x="355" y="597"/>
      <point x="316" y="602"/>
      <point x="279" y="602" type="curve" smooth="yes"/>
      <point x="129" y="602"/>
      <point x="41" y="523"/>
      <point x="41" y="297" type="curve" smooth="yes"/>
      <point x="41" y="67"/>
      <point x="131" y="-7"/>
      <point x="273" y="-7" type="curve" smooth="yes"/>
      <point x="318" y="-7"/>
      <point x="359" y="1"/>
    </contour>
    <contour>
      <point x="253" y="611" type="move" name="top"/>
    </contour>
    <contour>
      <point x="257" y="0" type="move" name="bottom"/>
    </contour>
  </outline>
</glyph>
<glyph name="E" format="1">
  <advance width="407"/>
  <unicode hex="0045"/>
  <outline>
    <contour>
      <point x="392" y="0" type="line"/>
      <point x="392" y="33" type="line"/>
      <point x="103" y="33" type="line"/>
      <point x="103" y="562" type="line"/>
      <point x="388" y="562" type="line"/>
      <point x="388" y="595" type="line"/>
      <point x="69" y="595" type="line"/>
      <point x="69" y="0" type="line"/>
    </contour>
    <contour>
      <point x="349" y="289" type="line"/>
      <point x="349" y="322" type="line"/>
      <point x="98" y="322" type="line"/>
      <point x="98" y="289" type="line"/>
    </contour>
    <contour>
      <point x="358" y="0" type="move" name="ogonek"/>
    </contour>
    <contour>
      <point x="238" y="611" type="move" name="top"/>
    </contour>
    <contour>
      <point x="15" y="595" type="move" name="topleft"/>
    </contour>
    <contour>
      <point x="238" y="0" type="move" name="bottom"/>
    </contour>
  </outline>
</glyph>
<glyph name="F" format="1">
  <advance width="391"/>
  <unicode hex="0046"/>
  <outline>
    <contour>
      <point x="103" y="0" type="line"/>
      <point x="103" y="561" type="line"/>
      <point x="383" y="561" type="line"/>
      <point x="383" y="595" type="line"/>
      <point x="69" y="595" type="line"/>
      <point x="69" y="0" type="line"/>
    </contour>
    <contour>
      <point x="345" y="288" type="line"/>
      <point x="345" y="321" type="line"/>
      <point x="98" y="321" type="line"/>
      <point x="98" y="288" type="line"/>
    </contour>
  </outline>
</glyph>
<glyph name="G" format="1">
  <advance width="475"/>
  <unicode hex="0047"/>
  <outline>
    <contour>
      <point x="421" y="6" type="curve"/>
      <point x="421" y="289" type="line"/>
      <point x="387" y="289" type="line"/>
      <point x="387" y="21" type="line"/>
      <point x="398" y="37" type="line"/>
      <point x="371" y="31"/>
      <point x="343" y="29"/>
      <point x="314" y="29" type="curve" smooth="yes"/>
      <point x="156" y="29"/>
      <point x="77" y="93"/>
      <point x="77" y="297" type="curve" smooth="yes"/>
      <point x="77" y="506"/>
      <point x="157" y="569"/>
      <point x="293" y="569" type="curve" smooth="yes"/>
      <point x="332" y="569"/>
      <point x="370" y="565"/>
      <point x="413" y="552" type="curve"/>
      <point x="413" y="586" type="line"/>
      <point x="376" y="597"/>
      <point x="334" y="602"/>
      <point x="295" y="602" type="curve" smooth="yes"/>
      <point x="138" y="602"/>
      <point x="41" y="524"/>
      <point x="41" y="297" type="curve" smooth="yes"/>
      <point x="41" y="73"/>
      <point x="136" y="-4"/>
      <point x="314" y="-4" type="curve" smooth="yes"/>
      <point x="348" y="-4"/>
      <point x="379" y="-2"/>
    </contour>
    <contour>
      <point x="266" y="611" type="move" name="top"/>
    </contour>
    <contour>
      <point x="266" y="0" type="move" name="bottom"/>
    </contour>
  </outline>
</glyph>
<glyph name="H" format="1">
  <advance width="523"/>
  <unicode hex="0048"/>
  <outline>
    <contour>
      <point x="103" y="0" type="line"/>
      <point x="103" y="289" type="line"/>
      <point x="420" y="289" type="line"/>
      <point x="420" y="0" type="line"/>
      <point x="454" y="0" type="line"/>
      <point x="454" y="595" type="line"/>
      <point x="420" y="595" type="line"/>
      <point x="420" y="323" type="line"/>
      <point x="103" y="323" type="line"/>
      <point x="103" y="595" type="line"/>
      <point x="69" y="595" type="line"/>
      <point x="69" y="0" type="line"/>
    </contour>
    <contour>
      <point x="262" y="0" type="move" name="bottom"/>
    </contour>
    <contour>
      <point x="262" y="611" type="move" name="top"/>
    </contour>
    <contour>
      <point x="15" y="595" type="move" name="topleft"/>
    </contour>
    <contour>
      <point x="262" y="460" type="move" name="center"/>
    </contour>
  </outline>
</glyph>
<glyph name="I" format="1">
  <advance width="172"/>
  <unicode hex="0049"/>
  <outline>
    <contour>
      <point x="103" y="0" type="line"/>
      <point x="103" y="595" type="line"/>
      <point x="69" y="595" type="line"/>
      <point x="69" y="0" type="line"/>
    </contour>
    <contour>
      <point x="86" y="611" type="move" name="top"/>
    </contour>
    <contour>
      <point x="103" y="0" type="move" name="ogonek"/>
    </contour>
    <contour>
      <point x="86" y="0" type="move" name="bottom"/>
    </contour>
  </outline>
</glyph>
<glyph name="J" format="1">
  <advance width="172"/>
  <unicode hex="004A"/>
  <outline>
    <contour>
      <point x="103" y="105" type="curve"/>
      <point x="103" y="595" type="line"/>
      <point x="69" y="595" type="line"/>
      <point x="69" y="115" type="line" smooth="yes"/>
      <point x="69" y="16"/>
      <point x="48" y="-44"/>
      <point x="-3" y="-120" type="curve"/>
      <point x="21" y="-137" type="line"/>
      <point x="78" y="-55"/>
      <point x="100" y="10"/>
    </contour>
    <contour>
      <point x="86" y="611" type="move" name="top"/>
    </contour>
    <contour>
      <point x="119" y="0" type="move" name="bottom"/>
    </contour>
  </outline>
</glyph>
<glyph name="K" format="1">
  <advance width="447"/>
  <unicode hex="004B"/>
  <outline>
    <contour>
      <point x="464" y="0" type="line"/>
      <point x="207" y="312" type="line"/>
      <point x="207" y="300" type="line"/>
      <point x="446" y="595" type="line"/>
      <point x="407" y="595" type="line"/>
      <point x="173" y="305" type="line"/>
      <point x="424" y="0" type="line"/>
    </contour>
    <contour>
      <point x="103" y="0" type="line"/>
      <point x="103" y="595" type="line"/>
      <point x="69" y="595" type="line"/>
      <point x="69" y="0" type="line"/>
    </contour>
    <contour>
      <point x="192" y="289" type="line"/>
      <point x="192" y="322" type="line"/>
      <point x="95" y="322" type="line"/>
      <point x="95" y="289" type="line"/>
    </contour>
    <contour>
      <point x="239" y="595" type="move" name="top"/>
    </contour>
    <contour>
      <point x="239" y="0" type="move" name="bottom"/>
    </contour>
  </outline>
</glyph>
<glyph name="L" format="1">
  <advance width="382"/>
  <unicode hex="004C"/>
  <outline>
    <contour>
      <point x="381" y="0" type="line"/>
      <point x="381" y="34" type="line"/>
      <point x="103" y="34" type="line"/>
      <point x="103" y="595" type="line"/>
      <point x="69" y="595" type="line"/>
      <point x="69" y="0" type="line"/>
    </contour>
    <contour>
      <point x="86" y="611" type="move" name="top"/>
    </contour>
    <contour>
      <point x="276" y="314" type="move" name="periodcentered"/>
    </contour>
    <contour>
      <point x="86" y="313" type="move" name="slash"/>
    </contour>
    <contour>
      <point x="248" y="595" type="move" name="caronalt"/>
    </contour>
    <contour>
      <point x="225" y="0" type="move" name="bottom"/>
    </contour>
  </outline>
</glyph>
<glyph name="M" format="1">
  <advance width="651"/>
  <unicode hex="004D"/>
  <outline>
    <contour>
      <point x="103" y="0" type="line"/>
      <point x="103" y="563" type="line"/>
      <point x="87" y="563" type="line"/>
      <point x="307" y="81" type="line"/>
      <point x="343" y="81" type="line"/>
      <point x="562" y="563" type="line"/>
      <point x="547" y="563" type="line"/>
      <point x="547" y="0" type="line"/>
      <point x="580" y="0" type="line"/>
      <point x="580" y="595" type="line"/>
      <point x="541" y="595" type="line"/>
      <point x="319" y="103" type="line"/>
      <point x="333" y="103" type="line"/>
      <point x="109" y="595" type="line"/>
      <point x="71" y="595" type="line"/>
      <point x="71" y="0" type="line"/>
    </contour>
    <contour>
      <point x="326" y="595" type="move" name="top"/>
    </contour>
    <contour>
      <point x="326" y="0" type="move" name="bottom"/>
    </contour>
  </outline>
</glyph>
<glyph name="N" format="1">
  <advance width="535"/>
  <unicode hex="004E"/>
  <outline>
    <contour>
      <point x="102" y="0" type="line"/>
      <point x="102" y="558" type="line"/>
      <point x="88" y="558" type="line"/>
      <point x="429" y="0" type="line"/>
      <point x="466" y="0" type="line"/>
      <point x="466" y="595" type="line"/>
      <point x="433" y="595" type="line"/>
      <point x="433" y="37" type="line"/>
      <point x="447" y="37" type="line"/>
      <point x="106" y="595" type="line"/>
      <point x="69" y="595" type="line"/>
      <point x="69" y="0" type="line"/>
    </contour>
    <contour>
      <point x="267" y="611" type="move" name="top"/>
    </contour>
    <contour>
      <point x="267" y="0" type="move" name="bottom"/>
    </contour>
  </outline>
</glyph>
<glyph name="O" format="1">
  <advance width="501"/>
  <unicode hex="004F"/>
  <outline>
    <contour>
      <point x="459" y="297" type="curve" smooth="yes"/>
      <point x="459" y="521"/>
      <point x="378" y="602"/>
      <point x="250" y="602" type="curve" smooth="yes"/>
      <point x="123" y="602"/>
      <point x="41" y="521"/>
      <point x="41" y="297" type="curve" smooth="yes"/>
      <point x="41" y="74"/>
      <point x="123" y="-7"/>
      <point x="250" y="-7" type="curve" smooth="yes"/>
      <point x="378" y="-7"/>
      <point x="459" y="74"/>
    </contour>
    <contour>
      <point x="77" y="299" type="curve" smooth="yes"/>
      <point x="77" y="507"/>
      <point x="146" y="569"/>
      <point x="250" y="569" type="curve" smooth="yes"/>
      <point x="355" y="569"/>
      <point x="424" y="507"/>
      <point x="424" y="296" type="curve" smooth="yes"/>
      <point x="424" y="88"/>
      <point x="355" y="26"/>
      <point x="250" y="26" type="curve" smooth="yes"/>
      <point x="146" y="26"/>
      <point x="77" y="88"/>
    </contour>
    <contour>
      <point x="250" y="0" type="move" name="bottom"/>
    </contour>
    <contour>
      <point x="311" y="0" type="move" name="ogonek"/>
    </contour>
    <contour>
      <point x="250" y="611" type="move" name="top"/>
    </contour>
    <contour>
      <point x="311" y="595" type="move" name="topright"/>
    </contour>
    <contour>
      <point x="16" y="595" type="move" name="topleft"/>
    </contour>
    <contour>
      <point x="250" y="297" type="move" name="center"/>
    </contour>
  </outline>
</glyph>
<glyph name="P" format="1">
  <advance width="453"/>
  <unicode hex="0050"/>
  <outline>
    <contour>
      <point x="103" y="0" type="line"/>
      <point x="103" y="208" type="line"/>
      <point x="127" y="206"/>
      <point x="151" y="205"/>
      <point x="177" y="205" type="curve" smooth="yes"/>
      <point x="340" y="205"/>
      <point x="414" y="273"/>
      <point x="414" y="402" type="curve" smooth="yes"/>
      <point x="414" y="538"/>
      <point x="340" y="601"/>
      <point x="193" y="601" type="curve" smooth="yes"/>
      <point x="149" y="601"/>
      <point x="106" y="596"/>
      <point x="69" y="590" type="curve"/>
      <point x="69" y="0" type="line"/>
    </contour>
    <contour>
      <point x="103" y="242" type="curve"/>
      <point x="103" y="562" type="line"/>
      <point x="132" y="566"/>
      <point x="162" y="568"/>
      <point x="194" y="568" type="curve" smooth="yes"/>
      <point x="320" y="568"/>
      <point x="379" y="518"/>
      <point x="379" y="401" type="curve" smooth="yes"/>
      <point x="379" y="290"/>
      <point x="316" y="238"/>
      <point x="179" y="238" type="curve" smooth="yes"/>
      <point x="153" y="238"/>
      <point x="128" y="239"/>
    </contour>
  </outline>
</glyph>
<glyph name="Q" format="1">
  <advance width="501"/>
  <unicode hex="0051"/>
  <outline>
    <contour>
      <point x="450" y="-44" type="line"/>
      <point x="371" y="-36"/>
      <point x="281" y="-21"/>
      <point x="214" y="12" type="curve"/>
      <point x="220" y="-2" type="line"/>
      <point x="380" y="-23"/>
      <point x="459" y="82"/>
      <point x="459" y="297" type="curve" smooth="yes"/>
      <point x="459" y="521"/>
      <point x="378" y="602"/>
      <point x="250" y="602" type="curve" smooth="yes"/>
      <point x="123" y="602"/>
      <point x="41" y="521"/>
      <point x="41" y="297" type="curve" smooth="yes"/>
      <point x="41" y="45"/>
      <point x="135" y="-38"/>
      <point x="444" y="-77" type="curve"/>
    </contour>
    <contour>
      <point x="77" y="299" type="curve" smooth="yes"/>
      <point x="77" y="507"/>
      <point x="146" y="569"/>
      <point x="250" y="569" type="curve" smooth="yes"/>
      <point x="355" y="569"/>
      <point x="424" y="507"/>
      <point x="424" y="296" type="curve" smooth="yes"/>
      <point x="424" y="88"/>
      <point x="355" y="26"/>
      <point x="250" y="26" type="curve" smooth="yes"/>
      <point x="146" y="26"/>
      <point x="77" y="88"/>
    </contour>
  </outline>
</glyph>
<glyph name="R" format="1">
  <advance width="481"/>
  <unicode hex="0052"/>
  <outline>
    <contour>
      <point x="103" y="0" type="line"/>
      <point x="103" y="261" type="line"/>
      <point x="123" y="259"/>
      <point x="143" y="258"/>
      <point x="176" y="258" type="curve" smooth="yes"/>
      <point x="333" y="258"/>
      <point x="415" y="317"/>
      <point x="413" y="432" type="curve" smooth="yes"/>
      <point x="413" y="544"/>
      <point x="344" y="601"/>
      <point x="201" y="601" type="curve" smooth="yes"/>
      <point x="149" y="601"/>
      <point x="108" y="596"/>
      <point x="69" y="590" type="curve"/>
      <point x="69" y="0" type="line"/>
    </contour>
    <contour>
      <point x="464" y="0" type="line"/>
      <point x="251" y="280" type="line"/>
      <point x="213" y="280" type="line"/>
      <point x="425" y="0" type="line"/>
    </contour>
    <contour>
      <point x="103" y="293" type="curve"/>
      <point x="103" y="561" type="line"/>
      <point x="135" y="566"/>
      <point x="162" y="568"/>
      <point x="199" y="568" type="curve" smooth="yes"/>
      <point x="328" y="568"/>
      <point x="379" y="524"/>
      <point x="379" y="431" type="curve" smooth="yes"/>
      <point x="379" y="335"/>
      <point x="318" y="290"/>
      <point x="174" y="290" type="curve" smooth="yes"/>
      <point x="149" y="290"/>
      <point x="131" y="291"/>
    </contour>
    <contour>
      <point x="226" y="611" type="move" name="top"/>
    </contour>
    <contour>
      <point x="256" y="0" type="move" name="bottom"/>
    </contour>
  </outline>
</glyph>
<glyph name="S" format="1">
  <advance width="373"/>
  <unicode hex="0053"/>
  <outline>
    <contour>
      <point x="344" y="153" type="curve" smooth="yes"/>
      <point x="344" y="237"/>
      <point x="300" y="286"/>
      <point x="197" y="317" type="curve" smooth="yes"/>
      <point x="99" y="347"/>
      <point x="64" y="376"/>
      <point x="64" y="450" type="curve" smooth="yes"/>
      <point x="64" y="526"/>
      <point x="113" y="569"/>
      <point x="214" y="569" type="curve" smooth="yes"/>
      <point x="250" y="569"/>
      <point x="284" y="565"/>
      <point x="321" y="554" type="curve"/>
      <point x="321" y="588" type="line"/>
      <point x="292" y="597"/>
      <point x="249" y="602"/>
      <point x="215" y="602" type="curve" smooth="yes"/>
      <point x="93" y="602"/>
      <point x="28" y="544"/>
      <point x="28" y="448" type="curve" smooth="yes"/>
      <point x="28" y="361"/>
      <point x="75" y="316"/>
      <point x="179" y="285" type="curve" smooth="yes"/>
      <point x="276" y="257"/>
      <point x="309" y="222"/>
      <point x="309" y="151" type="curve" smooth="yes"/>
      <point x="309" y="68"/>
      <point x="257" y="26"/>
      <point x="159" y="26" type="curve" smooth="yes"/>
      <point x="120" y="26"/>
      <point x="79" y="32"/>
      <point x="35" y="47" type="curve"/>
      <point x="35" y="13" type="line"/>
      <point x="75" y="-1"/>
      <point x="120" y="-7"/>
      <point x="157" y="-7" type="curve" smooth="yes"/>
      <point x="277" y="-7"/>
      <point x="344" y="50"/>
    </contour>
    <contour>
      <point x="189" y="611" type="move" name="top"/>
    </contour>
    <contour>
      <point x="189" y="0" type="move" name="bottom"/>
    </contour>
  </outline>
</glyph>
<glyph name="T" format="1">
  <advance width="422"/>
  <unicode hex="0054"/>
  <outline>
    <contour>
      <point x="228" y="0" type="line"/>
      <point x="228" y="561" type="line"/>
      <point x="418" y="561" type="line"/>
      <point x="418" y="595" type="line"/>
      <point x="3" y="595" type="line"/>
      <point x="3" y="561" type="line"/>
      <point x="194" y="561" type="line"/>
      <point x="194" y="0" type="line"/>
    </contour>
    <contour>
      <point x="211" y="611" type="move" name="top"/>
    </contour>
    <contour>
      <point x="211" y="319" type="move" name="center"/>
    </contour>
    <contour>
      <point x="211" y="0" type="move" name="bottom"/>
    </contour>
  </outline>
</glyph>
<glyph name="U" format="1">
  <advance width="514"/>
  <unicode hex="0055"/>
  <outline>
    <contour>
      <point x="448" y="201" type="curve" smooth="yes"/>
      <point x="448" y="595" type="line"/>
      <point x="415" y="595" type="line"/>
      <point x="415" y="196" type="line" smooth="yes"/>
      <point x="415" y="81"/>
      <point x="370" y="26"/>
      <point x="257" y="26" type="curve" smooth="yes"/>
      <point x="144" y="26"/>
      <point x="99" y="81"/>
      <point x="99" y="196" type="curve" smooth="yes"/>
      <point x="99" y="595" type="line"/>
      <point x="65" y="595" type="line"/>
      <point x="65" y="201" type="line" smooth="yes"/>
      <point x="65" y="59"/>
      <point x="123" y="-7"/>
      <point x="257" y="-7" type="curve" smooth="yes"/>
      <point x="392" y="-7"/>
      <point x="448" y="59"/>
    </contour>
    <contour>
      <point x="310" y="0" type="move" name="ogonek"/>
    </contour>
    <contour>
      <point x="257" y="611" type="move" name="top"/>
    </contour>
    <contour>
      <point x="416" y="595" type="move" name="topright"/>
    </contour>
    <contour>
      <point x="257" y="0" type="move" name="bottom"/>
    </contour>
  </outline>
</glyph>
<glyph name="V" format="1">
  <advance width="472"/>
  <unicode hex="0056"/>
  <outline>
    <contour>
      <point x="260" y="0" type="line"/>
      <point x="468" y="595" type="line"/>
      <point x="433" y="595" type="line"/>
      <point x="233" y="19" type="line"/>
      <point x="240" y="19" type="line"/>
      <point x="40" y="595" type="line"/>
      <point x="4" y="595" type="line"/>
      <point x="212" y="0" type="line"/>
    </contour>
  </outline>
</glyph>
<glyph name="W" format="1">
  <advance width="762"/>
  <unicode hex="0057"/>
  <outline>
    <contour>
      <point x="231" y="0" type="line"/>
      <point x="385" y="569" type="line"/>
      <point x="378" y="569" type="line"/>
      <point x="532" y="0" type="line"/>
      <point x="578" y="0" type="line"/>
      <point x="738" y="595" type="line"/>
      <point x="705" y="595" type="line"/>
      <point x="551" y="19" type="line"/>
      <point x="559" y="19" type="line"/>
      <point x="404" y="595" type="line"/>
      <point x="359" y="595" type="line"/>
      <point x="204" y="19" type="line"/>
      <point x="213" y="19" type="line"/>
      <point x="60" y="595" type="line"/>
      <point x="24" y="595" type="line"/>
      <point x="184" y="0" type="line"/>
    </contour>
    <contour>
      <point x="382" y="611" type="move" name="top"/>
    </contour>
    <contour>
      <point x="382" y="0" type="move" name="bottom"/>
    </contour>
  </outline>
</glyph>
<glyph name="X" format="1">
  <advance width="463"/>
  <unicode hex="0058"/>
  <outline>
    <contour>
      <point x="450" y="0" type="line"/>
      <point x="251" y="301" type="line"/>
      <point x="231" y="333" type="line"/>
      <point x="57" y="595" type="line"/>
      <point x="17" y="595" type="line"/>
      <point x="211" y="301" type="line"/>
      <point x="231" y="269" type="line"/>
      <point x="410" y="0" type="line"/>
    </contour>
    <contour>
      <point x="52" y="0" type="line"/>
      <point x="231" y="269" type="line"/>
      <point x="251" y="301" type="line"/>
      <point x="445" y="595" type="line"/>
      <point x="406" y="595" type="line"/>
      <point x="231" y="333" type="line"/>
      <point x="211" y="301" type="line"/>
      <point x="12" y="0" type="line"/>
    </contour>
  </outline>
</glyph>
<glyph name="Y" format="1">
  <advance width="422"/>
  <unicode hex="0059"/>
  <outline>
    <contour>
      <point x="228" y="0" type="line"/>
      <point x="228" y="286" type="line"/>
      <point x="220" y="257" type="line"/>
      <point x="428" y="595" type="line"/>
      <point x="391" y="595" type="line"/>
      <point x="204" y="295" type="line"/>
      <point x="218" y="295" type="line"/>
      <point x="28" y="595" type="line"/>
      <point x="-10" y="595" type="line"/>
      <point x="202" y="257" type="line"/>
      <point x="194" y="286" type="line"/>
      <point x="194" y="0" type="line"/>
    </contour>
    <contour>
      <point x="4" y="595" type="move" name="topleft"/>
    </contour>
    <contour>
      <point x="211" y="611" type="move" name="top"/>
    </contour>
    <contour>
      <point x="211" y="0" type="move" name="bottom"/>
    </contour>
  </outline>
</glyph>
<glyph name="Z" format="1">
  <advance width="408"/>
  <unicode hex="005A"/>
  <outline>
    <contour>
      <point x="384" y="0" type="line"/>
      <point x="384" y="33" type="line"/>
      <point x="54" y="33" type="line"/>
      <point x="60" y="21" type="line"/>
      <point x="380" y="574" type="line"/>
      <point x="380" y="595" type="line"/>
      <point x="27" y="595" type="line"/>
      <point x="27" y="562" type="line"/>
      <point x="348" y="562" type="line"/>
      <point x="342" y="574" type="line"/>
      <point x="23" y="21" type="line"/>
      <point x="23" y="0" type="line"/>
    </contour>
    <contour>
      <point x="204" y="611" type="move" name="top"/>
    </contour>
    <contour>
      <point x="204" y="0" type="move" name="bottom"/>
    </contour>
  </outline>
</glyph>
<glyph name="a" format="1">
  <advance width="366"/>
  <unicode hex="0061"/>
  <outline>
    <contour>
      <point x="274" y="49" type="curve"/>
      <point x="277" y="49" type="line"/>
      <point x="280" y="0" type="line"/>
      <point x="310" y="0" type="line"/>
      <point x="310" y="300" type="line" smooth="yes"/>
      <point x="310" y="406"/>
      <point x="259" y="441"/>
      <point x="167" y="441" type="curve" smooth="yes"/>
      <point x="133" y="441"/>
      <point x="89" y="435"/>
      <point x="58" y="424" type="curve"/>
      <point x="58" y="390" type="line"/>
      <point x="96" y="403"/>
      <point x="135" y="409"/>
      <point x="165" y="409" type="curve" smooth="yes"/>
      <point x="237" y="409"/>
      <point x="276" y="386"/>
      <point x="276" y="302" type="curve" smooth="yes"/>
      <point x="276" y="91" type="line"/>
      <point x="244" y="41"/>
      <point x="199" y="25"/>
      <point x="161" y="25" type="curve" smooth="yes"/>
      <point x="103" y="25"/>
      <point x="70" y="53"/>
      <point x="70" y="112" type="curve" smooth="yes"/>
      <point x="70" y="167"/>
      <point x="103" y="197"/>
      <point x="176" y="204" type="curve" smooth="yes"/>
      <point x="296" y="216" type="line"/>
      <point x="292" y="246" type="line"/>
      <point x="176" y="234" type="line" smooth="yes"/>
      <point x="80" y="224"/>
      <point x="34" y="183"/>
      <point x="34" y="108" type="curve" smooth="yes"/>
      <point x="34" y="34"/>
      <point x="84" y="-7"/>
      <point x="156" y="-7" type="curve" smooth="yes"/>
      <point x="204" y="-7"/>
      <point x="246" y="12"/>
    </contour>
    <contour>
      <point x="181" y="482" type="move" name="top"/>
    </contour>
    <contour>
      <point x="310" y="0" type="move" name="ogonek"/>
    </contour>
    <contour>
      <point x="182" y="0" type="move" name="bottom"/>
    </contour>
  </outline>
</glyph>
<glyph name="o" format="1">
  <advance width="392"/>
  <unicode hex="006F"/>
  <outline>
    <contour>
      <point x="355" y="217" type="curve" smooth="yes"/>
      <point x="355" y="381"/>
      <point x="291" y="441"/>
      <point x="196" y="441" type="curve" smooth="yes"/>
      <point x="99" y="441"/>
      <point x="37" y="381"/>
      <point x="37" y="217" type="curve" smooth="yes"/>
      <point x="37" y="54"/>
      <point x="100" y="-7"/>
      <point x="196" y="-7" type="curve" smooth="yes"/>
      <point x="293" y="-7"/>
      <point x="355" y="54"/>
    </contour>
    <contour>
      <point x="73" y="219" type="curve" smooth="yes"/>
      <point x="73" y="367"/>
      <point x="121" y="409"/>
      <point x="196" y="409" type="curve" smooth="yes"/>
      <point x="271" y="409"/>
      <point x="319" y="367"/>
      <point x="319" y="216" type="curve" smooth="yes"/>
      <point x="319" y="68"/>
      <point x="271" y="25"/>
      <point x="196" y="25" type="curve" smooth="yes"/>
      <point x="121" y="25"/>
      <point x="73" y="68"/>
    </contour>
    <contour>
      <point x="196" y="217" type="move" name="center"/>
    </contour>
    <contour>
      <point x="249" y="0" type="move" name="ogonek"/>
    </contour>
    <contour>
      <point x="196" y="482" type="move" name="top"/>
    </contour>
    <contour>
      <point x="243" y="435" type="move" name="topright"/>
    </contour>
    <contour>
      <point x="196" y="0" type="move" name="bottom"/>
    </contour>
  </outline>
</glyph>
<glyph name="AE" format="1">
  <advance width="665"/>
  <unicode hex="00C6"/>
  <outline>
    <contour>
      <point x="46" y="0" type="line"/>
      <point x="249" y="562" type="line"/>
      <point x="343" y="562" type="line"/>
      <point x="343" y="595" type="line"/>
      <point x="225" y="595" type="line"/>
      <point x="11" y="0" type="line"/>
    </contour>
    <contour>
      <point x="354" y="208" type="line"/>
      <point x="354" y="241" type="line"/>
      <point x="115" y="241" type="line"/>
      <point x="106" y="208" type="line"/>
    </contour>
    <contour>
      <point x="650" y="0" type="line"/>
      <point x="650" y="33" type="line"/>
      <point x="383" y="33" type="line"/>
      <point x="357" y="562" type="line"/>
      <point x="646" y="562" type="line"/>
      <point x="646" y="595" type="line"/>
      <point x="322" y="595" type="line"/>
      <point x="350" y="0" type="line"/>
    </contour>
    <contour>
      <point x="607" y="289" type="line"/>
      <point x="607" y="322" type="line"/>
      <point x="361" y="322" type="line"/>
      <point x="361" y="289" type="line"/>
    </contour>
    <contour>
      <point x="340" y="611" type="move" name="top"/>
    </contour>
    <contour>
      <point x="365" y="0" type="move" name="bottom"/>
    </contour>
  </outline>
</glyph>
<glyph name="Eth" format="1">
  <advance width="496"/>
  <unicode hex="00D0"/>
  <outline>
    <contour>
      <point x="455" y="297" type="curve" smooth="yes"/>
      <point x="455" y="506"/>
      <point x="367" y="601"/>
      <point x="190" y="601" type="curve" smooth="yes"/>
      <point x="149" y="601"/>
      <point x="106" y="596"/>
      <point x="69" y="590" type="curve"/>
      <point x="69" y="2" type="line"/>
      <point x="114" y="-3"/>
      <point x="144" y="-4"/>
      <point x="178" y="-4" type="curve" smooth="yes"/>
      <point x="359" y="-4"/>
      <point x="455" y="83"/>
    </contour>
    <contour>
      <point x="103" y="33" type="curve"/>
      <point x="103" y="561" type="line"/>
      <point x="132" y="565"/>
      <point x="162" y="568"/>
      <point x="189" y="568" type="curve" smooth="yes"/>
      <point x="348" y="568"/>
      <point x="419" y="488"/>
      <point x="419" y="297" type="curve" smooth="yes"/>
      <point x="419" y="103"/>
      <point x="340" y="29"/>
      <point x="180" y="29" type="curve" smooth="yes"/>
      <point x="154" y="29"/>
      <point x="131" y="29"/>
    </contour>
    <contour>
      <point x="229" y="292" type="line"/>
      <point x="229" y="321" type="line"/>
      <point x="-2" y="321" type="line"/>
      <point x="-2" y="292" type="line"/>
    </contour>
    <contour>
      <point x="248" y="297" type="move" name="center"/>
    </contour>
    <contour>
      <point x="69" y="306" type="move" name="stroke"/>
    </contour>
    <contour>
      <point x="222" y="611" type="move" name="top"/>
    </contour>
    <contour>
      <point x="222" y="0" type="move" name="bottom"/>
    </contour>
  </outline>
</glyph>
<glyph name="Thorn" format="1">
  <advance width="457"/>
  <unicode hex="00DE"/>
  <outline>
    <contour>
      <point x="103" y="0" type="line"/>
      <point x="103" y="111" type="line"/>
      <point x="127" y="109"/>
      <point x="151" y="108"/>
      <point x="177" y="108" type="curve" smooth="yes"/>
      <point x="340" y="108"/>
      <point x="414" y="176"/>
      <point x="414" y="305" type="curve" smooth="yes"/>
      <point x="414" y="441"/>
      <point x="340" y="503"/>
      <point x="193" y="503" type="curve" smooth="yes"/>
      <point x="159" y="503"/>
      <point x="125" y="500"/>
      <point x="103" y="497" type="curve"/>
      <point x="103" y="595" type="line"/>
      <point x="69" y="595" type="line"/>
      <point x="69" y="0" type="line"/>
    </contour>
    <contour>
      <point x="103" y="144" type="curve"/>
      <point x="103" y="464" type="line"/>
      <point x="132" y="468"/>
      <point x="162" y="471"/>
      <point x="194" y="471" type="curve" smooth="yes"/>
      <point x="320" y="471"/>
      <point x="379" y="421"/>
      <point x="379" y="303" type="curve" smooth="yes"/>
      <point x="379" y="193"/>
      <point x="316" y="140"/>
      <point x="179" y="140" type="curve" smooth="yes"/>
      <point x="153" y="140"/>
      <point x="128" y="141"/>
    </contour>
  </outline>
</glyph>
<glyph name="Hbar" format="1">
  <advance width="523"/>
  <unicode hex="0126"/>
  <outline>
    <contour>
      <point x="103" y="0" type="line"/>
      <point x="103" y="289" type="line"/>
      <point x="420" y="289" type="line"/>
      <point x="420" y="0" type="line"/>
      <point x="454" y="0" type="line"/>
      <point x="454" y="595" type="line"/>
      <point x="420" y="595" type="line"/>
      <point x="420" y="323" type="line"/>
      <point x="103" y="323" type="line"/>
      <point x="103" y="595" type="line"/>
      <point x="69" y="595" type="line"/>
      <point x="69" y="0" type="line"/>
    </contour>
    <contour>
      <point x="525" y="446" type="line"/>
      <point x="525" y="474" type="line"/>
      <point x="-1" y="474" type="line"/>
      <point x="-1" y="446" type="line"/>
    </contour>
    <contour>
      <point x="262" y="460" type="move" name="center"/>
    </contour>
    <contour>
      <point x="262" y="611" type="move" name="top"/>
    </contour>
    <contour>
      <point x="15" y="595" type="move" name="topleft"/>
    </contour>
    <contour>
      <point x="262" y="0" type="move" name="bottom"/>
    </contour>
  </outline>
</glyph>
<glyph name="Lslash" format="1">
  <advance width="383"/>
  <unicode hex="0141"/>
  <outline>
    <contour>
      <point x="223" y="415" type="line"/>
      <point x="204" y="437" type="line"/>
      <point x="-2" y="251" type="line"/>
      <point x="16" y="229" type="line"/>
    </contour>
    <contour>
      <point x="382" y="0" type="line"/>
      <point x="382" y="34" type="line"/>
      <point x="104" y="34" type="line"/>
      <point x="104" y="595" type="line"/>
      <point x="70" y="595" type="line"/>
      <point x="70" y="0" type="line"/>
    </contour>
    <contour>
      <point x="249" y="595" type="move" name="caronalt"/>
    </contour>
    <contour>
      <point x="87" y="611" type="move" name="top"/>
    </contour>
    <contour>
      <point x="276" y="314" type="move" name="periodcentered"/>
    </contour>
    <contour>
      <point x="87" y="313" type="move" name="_slash"/>
    </contour>
    <contour>
      <point x="87" y="313" type="move" name="slash"/>
    </contour>
    <contour>
      <point x="226" y="0" type="move" name="bottom"/>
    </contour>
  </outline>
</glyph>
<glyph name="OE" format="1">
  <advance width="711"/>
  <unicode hex="0152"/>
  <outline>
    <contour>
      <point x="406" y="0" type="curve" smooth="yes"/>
      <point x="696" y="0" type="line"/>
      <point x="696" y="33" type="line"/>
      <point x="417" y="33" type="line"/>
      <point x="417" y="562" type="line"/>
      <point x="692" y="562" type="line"/>
      <point x="692" y="595" type="line"/>
      <point x="404" y="595" type="line" smooth="yes"/>
      <point x="379" y="595"/>
      <point x="347" y="600"/>
      <point x="301" y="600" type="curve" smooth="yes"/>
      <point x="130" y="600"/>
      <point x="41" y="506"/>
      <point x="41" y="297" type="curve" smooth="yes"/>
      <point x="41" y="83"/>
      <point x="137" y="-4"/>
      <point x="312" y="-4" type="curve" smooth="yes"/>
      <point x="356" y="-4"/>
      <point x="380" y="0"/>
    </contour>
    <contour>
      <point x="77" y="297" type="curve" smooth="yes"/>
      <point x="77" y="488"/>
      <point x="149" y="567"/>
      <point x="301" y="567" type="curve" smooth="yes"/>
      <point x="328" y="567"/>
      <point x="356" y="566"/>
      <point x="384" y="562" type="curve"/>
      <point x="384" y="33" type="line"/>
      <point x="360" y="30"/>
      <point x="336" y="29"/>
      <point x="310" y="29" type="curve" smooth="yes"/>
      <point x="156" y="29"/>
      <point x="77" y="103"/>
    </contour>
    <contour>
      <point x="653" y="289" type="line"/>
      <point x="653" y="322" type="line"/>
      <point x="412" y="322" type="line"/>
      <point x="412" y="289" type="line"/>
    </contour>
    <contour>
      <point x="400" y="611" type="move" name="top"/>
    </contour>
    <contour>
      <point x="400" y="0" type="move" name="bottom"/>
    </contour>
  </outline>
</glyph>
<glyph name="Ohorn" format="1">
  <advance width="501"/>
  <unicode hex="01A0"/>
  <outline>
    <contour>
      <point x="459" y="297" type="curve" smooth="yes"/>
      <point x="459" y="444"/>
      <point x="424" y="530"/>
      <point x="363" y="571" type="curve"/>
      <point x="358" y="564" type="line"/>
      <point x="416" y="564"/>
      <point x="460" y="596"/>
      <point x="460" y="656" type="curve" smooth="yes"/>
      <point x="460" y="680"/>
      <point x="456" y="695"/>
      <point x="450" y="714" type="curve"/>
      <point x="418" y="714" type="line"/>
      <point x="424" y="695"/>
      <point x="428" y="679"/>
      <point x="428" y="657" type="curve" smooth="yes"/>
      <point x="428" y="612"/>
      <point x="396" y="593"/>
      <point x="353" y="593" type="curve" smooth="yes"/>
      <point x="320" y="593"/>
      <point x="296" y="602"/>
      <point x="250" y="602" type="curve" smooth="yes"/>
      <point x="123" y="602"/>
      <point x="41" y="521"/>
      <point x="41" y="297" type="curve" smooth="yes"/>
      <point x="41" y="74"/>
      <point x="124" y="-7"/>
      <point x="250" y="-7" type="curve" smooth="yes"/>
      <point x="376" y="-7"/>
      <point x="459" y="74"/>
    </contour>
    <contour>
      <point x="77" y="299" type="curve" smooth="yes"/>
      <point x="77" y="507"/>
      <point x="146" y="569"/>
      <point x="250" y="569" type="curve" smooth="yes"/>
      <point x="355" y="569"/>
      <point x="424" y="507"/>
      <point x="424" y="296" type="curve" smooth="yes"/>
      <point x="424" y="88"/>
      <point x="355" y="26"/>
      <point x="250" y="26" type="curve" smooth="yes"/>
      <point x="146" y="26"/>
      <point x="77" y="88"/>
    </contour>
    <contour>
      <point x="250" y="611" type="move" name="top"/>
    </contour>
    <contour>
      <point x="250" y="0" type="move" name="bottom"/>
    </contour>
  </outline>
</glyph>
<glyph name="Uhorn" format="1">
  <advance width="514"/>
  <unicode hex="01AF"/>
  <outline>
    <contour>
      <point x="527" y="714" type="curve"/>
      <point x="496" y="714" type="line"/>
      <point x="502" y="695"/>
      <point x="506" y="679"/>
      <point x="506" y="657" type="curve" smooth="yes"/>
      <point x="506" y="612"/>
      <point x="473" y="595"/>
      <point x="430" y="595" type="curve" smooth="yes"/>
      <point x="415" y="595" type="line"/>
      <point x="415" y="196" type="line" smooth="yes"/>
      <point x="415" y="81"/>
      <point x="370" y="26"/>
      <point x="257" y="26" type="curve" smooth="yes"/>
      <point x="144" y="26"/>
      <point x="99" y="81"/>
      <point x="99" y="196" type="curve" smooth="yes"/>
      <point x="99" y="595" type="line"/>
      <point x="65" y="595" type="line"/>
      <point x="65" y="201" type="line" smooth="yes"/>
      <point x="65" y="59"/>
      <point x="123" y="-7"/>
      <point x="257" y="-7" type="curve" smooth="yes"/>
      <point x="392" y="-7"/>
      <point x="448" y="59"/>
      <point x="448" y="201" type="curve" smooth="yes"/>
      <point x="448" y="568" type="line"/>
      <point x="499" y="571"/>
      <point x="537" y="600"/>
      <point x="537" y="656" type="curve" smooth="yes"/>
      <point x="537" y="680"/>
      <point x="534" y="695"/>
    </contour>
    <contour>
      <point x="257" y="611" type="move" name="top"/>
    </contour>
    <contour>
      <point x="257" y="0" type="move" name="bottom"/>
    </contour>
  </outline>
</glyph>
<glyph name="Germandbls" format="1">
  <advance width="601"/>
  <outline>
    <contour>
      <point x="573" y="153" type="curve" smooth="yes"/>
      <point x="573" y="237"/>
      <point x="529" y="286"/>
      <point x="425" y="317" type="curve" smooth="yes"/>
      <point x="328" y="347"/>
      <point x="293" y="376"/>
      <point x="293" y="450" type="curve" smooth="yes"/>
      <point x="293" y="526"/>
      <point x="341" y="569"/>
      <point x="442" y="569" type="curve" smooth="yes"/>
      <point x="478" y="569"/>
      <point x="513" y="565"/>
      <point x="549" y="554" type="curve"/>
      <point x="549" y="588" type="line"/>
      <point x="520" y="597"/>
      <point x="477" y="602"/>
      <point x="443" y="602" type="curve" smooth="yes"/>
      <point x="322" y="602"/>
      <point x="257" y="544"/>
      <point x="257" y="448" type="curve" smooth="yes"/>
      <point x="257" y="361"/>
      <point x="304" y="316"/>
      <point x="407" y="285" type="curve" smooth="yes"/>
      <point x="504" y="257"/>
      <point x="537" y="222"/>
      <point x="537" y="151" type="curve" smooth="yes"/>
      <point x="537" y="68"/>
      <point x="485" y="26"/>
      <point x="388" y="26" type="curve" smooth="yes"/>
      <point x="349" y="26"/>
      <point x="308" y="32"/>
      <point x="264" y="47" type="curve"/>
      <point x="264" y="13" type="line"/>
      <point x="304" y="-1"/>
      <point x="349" y="-7"/>
      <point x="385" y="-7" type="curve" smooth="yes"/>
      <point x="505" y="-7"/>
      <point x="573" y="50"/>
    </contour>
    <contour>
      <point x="103" y="0" type="line"/>
      <point x="103" y="401" type="line" smooth="yes"/>
      <point x="103" y="514"/>
      <point x="147" y="569"/>
      <point x="260" y="569" type="curve" smooth="yes"/>
      <point x="286" y="569"/>
      <point x="309" y="566"/>
      <point x="329" y="559" type="curve"/>
      <point x="360" y="583" type="line"/>
      <point x="333" y="595"/>
      <point x="299" y="602"/>
      <point x="260" y="602" type="curve" smooth="yes"/>
      <point x="126" y="602"/>
      <point x="69" y="535"/>
      <point x="69" y="396" type="curve" smooth="yes"/>
      <point x="69" y="0" type="line"/>
    </contour>
  </outline>
</glyph>
<glyph name="Schwa" format="1">
  <advance width="501"/>
  <outline>
    <contour>
      <point x="460" y="297" type="curve" smooth="yes"/>
      <point x="460" y="522"/>
      <point x="370" y="602"/>
      <point x="207" y="602" type="curve" smooth="yes"/>
      <point x="159" y="602"/>
      <point x="113" y="597"/>
      <point x="66" y="586" type="curve"/>
      <point x="66" y="552" type="line"/>
      <point x="112" y="565"/>
      <point x="162" y="569"/>
      <point x="204" y="569" type="curve" smooth="yes"/>
      <point x="355" y="569"/>
      <point x="424" y="509"/>
      <point x="424" y="296" type="curve" smooth="yes"/>
      <point x="424" y="87"/>
      <point x="356" y="25"/>
      <point x="246" y="25" type="curve" smooth="yes"/>
      <point x="136" y="25"/>
      <point x="73" y="88"/>
      <point x="73" y="297" type="curve"/>
      <point x="60" y="283" type="line"/>
      <point x="438" y="283" type="line"/>
      <point x="438" y="316" type="line"/>
      <point x="37" y="316" type="line"/>
      <point x="37" y="297" type="line" smooth="yes"/>
      <point x="37" y="75"/>
      <point x="115" y="-7"/>
      <point x="246" y="-7" type="curve" smooth="yes"/>
      <point x="377" y="-7"/>
      <point x="460" y="74"/>
    </contour>
    <contour>
      <point x="251" y="610" type="move" name="top"/>
    </contour>
    <contour>
      <point x="251" y="0" type="move" name="bottom"/>
    </contour>
  </outline>
</glyph>
<glyph name="eight.tf" format="1">
  <advance width="430"/>
  <outline>
    <contour>
      <point x="391" y="145" type="curve" smooth="yes"/>
      <point x="391" y="231"/>
      <point x="348" y="277"/>
      <point x="226" y="315" type="curve" smooth="yes"/>
      <point x="121" y="348"/>
      <point x="92" y="386"/>
      <point x="92" y="455" type="curve" smooth="yes"/>
      <point x="92" y="526"/>
      <point x="135" y="570"/>
      <point x="214" y="570" type="curve" smooth="yes"/>
      <point x="293" y="570"/>
      <point x="340" y="529"/>
      <point x="340" y="452" type="curve" smooth="yes"/>
      <point x="340" y="382"/>
      <point x="309" y="343"/>
      <point x="235" y="309" type="curve"/>
      <point x="265" y="296" type="line"/>
      <point x="334" y="327"/>
      <point x="374" y="382"/>
      <point x="374" y="453" type="curve" smooth="yes"/>
      <point x="374" y="544"/>
      <point x="312" y="602"/>
      <point x="214" y="602" type="curve" smooth="yes"/>
      <point x="118" y="602"/>
      <point x="56" y="544"/>
      <point x="56" y="454" type="curve" smooth="yes"/>
      <point x="56" y="369"/>
      <point x="101" y="319"/>
      <point x="219" y="283" type="curve" smooth="yes"/>
      <point x="324" y="250"/>
      <point x="356" y="217"/>
      <point x="356" y="143" type="curve" smooth="yes"/>
      <point x="356" y="68"/>
      <point x="306" y="25"/>
      <point x="220" y="25" type="curve" smooth="yes"/>
      <point x="121" y="25"/>
      <point x="74" y="70"/>
      <point x="74" y="148" type="curve" smooth="yes"/>
      <point x="74" y="222"/>
      <point x="117" y="276"/>
      <point x="189" y="298" type="curve"/>
      <point x="159" y="313" type="line"/>
      <point x="85" y="286"/>
      <point x="39" y="224"/>
      <point x="39" y="147" type="curve" smooth="yes"/>
      <point x="39" y="50"/>
      <point x="104" y="-7"/>
      <point x="220" y="-7" type="curve" smooth="yes"/>
      <point x="326" y="-7"/>
      <point x="391" y="54"/>
    </contour>
  </outline>
</glyph>
<glyph name="five.tf" format="1">
  <advance width="430"/>
  <outline>
    <contour>
      <point x="384" y="161" type="curve" smooth="yes"/>
      <point x="384" y="271"/>
      <point x="308" y="325"/>
      <point x="160" y="334" type="curve" smooth="yes"/>
      <point x="87" y="338" type="line"/>
      <point x="110" y="316" type="line"/>
      <point x="130" y="578" type="line"/>
      <point x="115" y="563" type="line"/>
      <point x="356" y="563" type="line"/>
      <point x="356" y="595" type="line"/>
      <point x="97" y="595" type="line"/>
      <point x="77" y="305" type="line"/>
      <point x="150" y="301" type="line" smooth="yes"/>
      <point x="287" y="294"/>
      <point x="349" y="252"/>
      <point x="349" y="160" type="curve" smooth="yes"/>
      <point x="349" y="71"/>
      <point x="294" y="25"/>
      <point x="190" y="25" type="curve" smooth="yes"/>
      <point x="145" y="25"/>
      <point x="97" y="33"/>
      <point x="56" y="47" type="curve"/>
      <point x="56" y="14" type="line"/>
      <point x="94" y="0"/>
      <point x="141" y="-7"/>
      <point x="190" y="-7" type="curve" smooth="yes"/>
      <point x="315" y="-7"/>
      <point x="384" y="52"/>
    </contour>
  </outline>
</glyph>
<glyph name="four.tf" format="1">
  <advance width="430"/>
  <outline>
    <contour>
      <point x="411" y="152" type="line"/>
      <point x="411" y="184" type="line"/>
      <point x="51" y="184" type="line"/>
      <point x="58" y="172" type="line"/>
      <point x="280" y="595" type="line"/>
      <point x="244" y="595" type="line"/>
      <point x="22" y="172" type="line"/>
      <point x="22" y="152" type="line"/>
    </contour>
    <contour>
      <point x="326" y="0" type="line"/>
      <point x="326" y="394" type="line"/>
      <point x="299" y="394" type="line"/>
      <point x="293" y="184" type="line"/>
      <point x="293" y="0" type="line"/>
    </contour>
  </outline>
</glyph>
<glyph name="nine.tf" format="1">
  <advance width="430"/>
  <outline>
    <contour>
      <point x="31" y="430" type="curve" smooth="yes"/>
      <point x="31" y="314"/>
      <point x="106" y="260"/>
      <point x="198" y="260" type="curve" smooth="yes"/>
      <point x="261" y="260"/>
      <point x="317" y="285"/>
      <point x="346" y="325" type="curve"/>
      <point x="346" y="367" type="line"/>
      <point x="315" y="313"/>
      <point x="255" y="292"/>
      <point x="201" y="292" type="curve" smooth="yes"/>
      <point x="126" y="292"/>
      <point x="66" y="331"/>
      <point x="66" y="431" type="curve" smooth="yes"/>
      <point x="66" y="531"/>
      <point x="122" y="570"/>
      <point x="187" y="570" type="curve" smooth="yes"/>
      <point x="269" y="570"/>
      <point x="333" y="519"/>
      <point x="333" y="318" type="curve" smooth="yes"/>
      <point x="333" y="310" type="line" smooth="yes"/>
      <point x="333" y="98"/>
      <point x="267" y="25"/>
      <point x="149" y="25" type="curve" smooth="yes"/>
      <point x="116" y="25"/>
      <point x="84" y="31"/>
      <point x="57" y="42" type="curve"/>
      <point x="57" y="9" type="line"/>
      <point x="84" y="-3"/>
      <point x="117" y="-7"/>
      <point x="148" y="-7" type="curve" smooth="yes"/>
      <point x="289" y="-7"/>
      <point x="368" y="80"/>
      <point x="368" y="317" type="curve" smooth="yes"/>
      <point x="368" y="537"/>
      <point x="289" y="602"/>
      <point x="188" y="602" type="curve" smooth="yes"/>
      <point x="102" y="602"/>
      <point x="31" y="547"/>
    </contour>
  </outline>
</glyph>
<glyph name="one.tf" format="1">
  <advance width="430"/>
  <outline>
    <contour>
      <point x="257" y="0" type="line"/>
      <point x="257" y="597" type="line"/>
      <point x="238" y="597" type="line"/>
      <point x="84" y="486" type="line"/>
      <point x="84" y="449" type="line"/>
      <point x="238" y="560" type="line"/>
      <point x="223" y="563" type="line"/>
      <point x="223" y="0" type="line"/>
    </contour>
    <contour>
      <point x="385" y="0" type="line"/>
      <point x="385" y="33" type="line"/>
      <point x="92" y="33" type="line"/>
      <point x="92" y="0" type="line"/>
    </contour>
  </outline>
</glyph>
<glyph name="seven.tf" format="1">
  <advance width="430"/>
  <outline>
    <contour>
      <point x="139" y="0" type="line"/>
      <point x="378" y="574" type="line"/>
      <point x="378" y="595" type="line"/>
      <point x="34" y="595" type="line"/>
      <point x="34" y="562" type="line"/>
      <point x="347" y="562" type="line"/>
      <point x="344" y="575" type="line"/>
      <point x="104" y="0" type="line"/>
    </contour>
  </outline>
</glyph>
<glyph name="six.tf" format="1">
  <advance width="430"/>
  <outline>
    <contour>
      <point x="399" y="165" type="curve" smooth="yes"/>
      <point x="399" y="281"/>
      <point x="324" y="335"/>
      <point x="232" y="335" type="curve" smooth="yes"/>
      <point x="170" y="335"/>
      <point x="113" y="310"/>
      <point x="84" y="270" type="curve"/>
      <point x="84" y="228" type="line"/>
      <point x="115" y="282"/>
      <point x="176" y="303"/>
      <point x="229" y="303" type="curve" smooth="yes"/>
      <point x="304" y="303"/>
      <point x="364" y="264"/>
      <point x="364" y="164" type="curve" smooth="yes"/>
      <point x="364" y="64"/>
      <point x="308" y="25"/>
      <point x="243" y="25" type="curve" smooth="yes"/>
      <point x="161" y="25"/>
      <point x="97" y="76"/>
      <point x="97" y="277" type="curve" smooth="yes"/>
      <point x="97" y="285" type="line" smooth="yes"/>
      <point x="97" y="497"/>
      <point x="163" y="570"/>
      <point x="281" y="570" type="curve" smooth="yes"/>
      <point x="315" y="570"/>
      <point x="346" y="564"/>
      <point x="373" y="553" type="curve"/>
      <point x="373" y="586" type="line"/>
      <point x="346" y="597"/>
      <point x="314" y="602"/>
      <point x="282" y="602" type="curve" smooth="yes"/>
      <point x="141" y="602"/>
      <point x="62" y="515"/>
      <point x="62" y="278" type="curve" smooth="yes"/>
      <point x="62" y="58"/>
      <point x="141" y="-7"/>
      <point x="242" y="-7" type="curve" smooth="yes"/>
      <point x="328" y="-7"/>
      <point x="399" y="48"/>
    </contour>
  </outline>
</glyph>
<glyph name="slashcomb.case" format="1">
  <advance width="515"/>
  <outline>
    <contour>
      <point x="460" y="588" type="line"/>
      <point x="435" y="603" type="line"/>
      <point x="52" y="7" type="line"/>
      <point x="77" y="-8" type="line"/>
    </contour>
    <contour>
      <point x="256" y="297" type="move" name="_center"/>
    </contour>
  </outline>
</glyph>
<glyph name="slashcomb" format="1">
  <advance width="512"/>
  <outline>
    <contour>
      <point x="159" y="47" type="line"/>
      <point x="166" y="59" type="line"/>
      <point x="370" y="361" type="line"/>
      <point x="378" y="373" type="line"/>
      <point x="415" y="427" type="line"/>
      <point x="390" y="442" type="line"/>
      <point x="353" y="388" type="line"/>
      <point x="346" y="375" type="line"/>
      <point x="142" y="73" type="line"/>
      <point x="135" y="62" type="line"/>
      <point x="98" y="7" type="line"/>
      <point x="123" y="-8" type="line"/>
    </contour>
    <contour>
      <point x="256" y="217" type="move" name="_center"/>
    </contour>
  </outline>
</glyph>
<glyph name="slashshortcomb.case" format="1">
  <advance width="343"/>
  <outline>
    <contour>
      <point x="307" y="413" type="line"/>
      <point x="288" y="435" type="line"/>
      <point x="82" y="249" type="line"/>
      <point x="100" y="227" type="line"/>
    </contour>
    <contour>
      <point x="171" y="311" type="move" name="_slash"/>
    </contour>
  </outline>
</glyph>
<glyph name="slashshortcomb" format="1">
  <advance width="342"/>
  <outline>
    <contour>
      <point x="247" y="362" type="line"/>
      <point x="229" y="382" type="line"/>
      <point x="94" y="260" type="line"/>
      <point x="113" y="240" type="line"/>
    </contour>
    <contour>
      <point x="171" y="311" type="move" name="_slash"/>
    </contour>
  </outline>
</glyph>
<glyph name="strokelongcomb.case" format="1">
  <advance width="523"/>
  <outline>
    <contour>
      <point x="528" y="422" type="line"/>
      <point x="528" y="450" type="line"/>
      <point x="2" y="450" type="line"/>
      <point x="2" y="422" type="line"/>
    </contour>
    <contour>
      <point x="265" y="436" type="move" name="_center"/>
    </contour>
  </outline>
</glyph>
<glyph name="strokeshortcomb.case" format="1">
  <advance width="347"/>
  <outline>
    <contour>
      <point x="316" y="420" type="line"/>
      <point x="316" y="449" type="line"/>
      <point x="30" y="449" type="line"/>
      <point x="30" y="420" type="line"/>
    </contour>
    <contour>
      <point x="173" y="434" type="move" name="_center"/>
    </contour>
  </outline>
</glyph>
<glyph name="strokeshortcomb.h" format="1">
  <advance width="512"/>
  <outline>
    <contour>
      <point x="417" y="420" type="line"/>
      <point x="417" y="449" type="line"/>
      <point x="198" y="449" type="line"/>
      <point x="198" y="420" type="line"/>
    </contour>
    <contour>
      <point x="256" y="435" type="move" name="_stroke"/>
    </contour>
  </outline>
</glyph>
<glyph name="three.tf" format="1">
  <advance width="430"/>
  <outline>
    <contour>
      <point x="376" y="154" type="curve" smooth="yes"/>
      <point x="376" y="242"/>
      <point x="320" y="299"/>
      <point x="212" y="313" type="curve"/>
      <point x="211" y="305" type="line"/>
      <point x="304" y="322"/>
      <point x="356" y="380"/>
      <point x="356" y="457" type="curve" smooth="yes"/>
      <point x="356" y="550"/>
      <point x="295" y="602"/>
      <point x="180" y="602" type="curve" smooth="yes"/>
      <point x="137" y="602"/>
      <point x="89" y="594"/>
      <point x="59" y="581" type="curve"/>
      <point x="59" y="547" type="line"/>
      <point x="97" y="562"/>
      <point x="135" y="570"/>
      <point x="180" y="570" type="curve" smooth="yes"/>
      <point x="273" y="570"/>
      <point x="321" y="532"/>
      <point x="321" y="456" type="curve" smooth="yes"/>
      <point x="321" y="375"/>
      <point x="257" y="322"/>
      <point x="136" y="322" type="curve" smooth="yes"/>
      <point x="119" y="322" type="line"/>
      <point x="119" y="289" type="line"/>
      <point x="166" y="289" type="line" smooth="yes"/>
      <point x="287" y="289"/>
      <point x="342" y="237"/>
      <point x="342" y="154" type="curve" smooth="yes"/>
      <point x="342" y="68"/>
      <point x="279" y="25"/>
      <point x="181" y="25" type="curve" smooth="yes"/>
      <point x="138" y="25"/>
      <point x="91" y="32"/>
      <point x="48" y="47" type="curve"/>
      <point x="48" y="14" type="line"/>
      <point x="88" y="0"/>
      <point x="133" y="-7"/>
      <point x="182" y="-7" type="curve" smooth="yes"/>
      <point x="301" y="-7"/>
      <point x="376" y="50"/>
    </contour>
  </outline>
</glyph>
<glyph name="two.tf" format="1">
  <advance width="430"/>
  <outline>
    <contour>
      <point x="358" y="0" type="line"/>
      <point x="358" y="33" type="line"/>
      <point x="88" y="33" type="line"/>
      <point x="96" y="21" type="line"/>
      <point x="254" y="250" type="line" smooth="yes"/>
      <point x="316" y="340"/>
      <point x="340" y="395"/>
      <point x="341" y="455" type="curve" smooth="yes"/>
      <point x="343" y="560"/>
      <point x="276" y="602"/>
      <point x="172" y="602" type="curve" smooth="yes"/>
      <point x="127" y="602"/>
      <point x="81" y="594"/>
      <point x="52" y="581" type="curve"/>
      <point x="52" y="547" type="line"/>
      <point x="89" y="562"/>
      <point x="125" y="569"/>
      <point x="171" y="569" type="curve" smooth="yes"/>
      <point x="257" y="569"/>
      <point x="306" y="540"/>
      <point x="306" y="454" type="curve" smooth="yes"/>
      <point x="306" y="400"/>
      <point x="281" y="347"/>
      <point x="227" y="267" type="curve" smooth="yes"/>
      <point x="59" y="21" type="line"/>
      <point x="59" y="0" type="line"/>
    </contour>
  </outline>
</glyph>
<glyph name="zero.tf" format="1">
  <advance width="430"/>
  <outline>
    <contour>
      <point x="384" y="297" type="curve" smooth="yes"/>
      <point x="384" y="524"/>
      <point x="319" y="602"/>
      <point x="215" y="602" type="curve" smooth="yes"/>
      <point x="111" y="602"/>
      <point x="46" y="524"/>
      <point x="46" y="297" type="curve" smooth="yes"/>
      <point x="46" y="71"/>
      <point x="112" y="-7"/>
      <point x="215" y="-7" type="curve" smooth="yes"/>
      <point x="318" y="-7"/>
      <point x="384" y="71"/>
    </contour>
    <contour>
      <point x="82" y="299" type="curve" smooth="yes"/>
      <point x="82" y="507"/>
      <point x="134" y="569"/>
      <point x="215" y="569" type="curve" smooth="yes"/>
      <point x="296" y="569"/>
      <point x="348" y="507"/>
      <point x="348" y="296" type="curve" smooth="yes"/>
      <point x="348" y="88"/>
      <point x="296" y="26"/>
      <point x="215" y="26" type="curve" smooth="yes"/>
      <point x="134" y="26"/>
      <point x="82" y="88"/>
    </contour>
  </outline>
</glyph>
